<mxfile host="app.diagrams.net" modified="2024-03-12T19:51:18.616Z" agent="Mozilla/5.0 (Windows NT 10.0; Win64; x64; rv:123.0) Gecko/20100101 Firefox/123.0" etag="daPsHE5hCzbUiPlq6tnd" version="24.0.5" type="device">
  <diagram name="1 oldal" id="Cauv9YDiLvc9a0ePnLrx">
    <mxGraphModel dx="2074" dy="754" grid="1" gridSize="10" guides="1" tooltips="1" connect="1" arrows="1" fold="1" page="1" pageScale="1" pageWidth="827" pageHeight="1169" math="0" shadow="0">
      <root>
        <mxCell id="0" />
        <mxCell id="1" parent="0" />
        <mxCell id="EYfdABTAuKxK3zkM5wz1-1" value="Angular Component" style="rounded=0;whiteSpace=wrap;html=1;" vertex="1" parent="1">
          <mxGeometry x="10" y="280" width="120" height="80" as="geometry" />
        </mxCell>
        <mxCell id="EYfdABTAuKxK3zkM5wz1-2" value="Angular Service" style="rounded=0;whiteSpace=wrap;html=1;" vertex="1" parent="1">
          <mxGeometry x="220" y="280" width="120" height="80" as="geometry" />
        </mxCell>
        <mxCell id="EYfdABTAuKxK3zkM5wz1-3" value="asp.net Controller" style="rounded=0;whiteSpace=wrap;html=1;" vertex="1" parent="1">
          <mxGeometry x="470" y="280" width="120" height="80" as="geometry" />
        </mxCell>
        <mxCell id="EYfdABTAuKxK3zkM5wz1-4" value="&lt;div&gt;C# Service&lt;/div&gt;&lt;div&gt;&amp;lt;normal class&amp;gt;&lt;br&gt;&lt;/div&gt;" style="rounded=0;whiteSpace=wrap;html=1;" vertex="1" parent="1">
          <mxGeometry x="690" y="280" width="120" height="80" as="geometry" />
        </mxCell>
        <mxCell id="EYfdABTAuKxK3zkM5wz1-5" value="" style="endArrow=classic;html=1;rounded=0;exitX=1;exitY=0.5;exitDx=0;exitDy=0;entryX=0;entryY=0.5;entryDx=0;entryDy=0;" edge="1" parent="1" source="EYfdABTAuKxK3zkM5wz1-1" target="EYfdABTAuKxK3zkM5wz1-2">
          <mxGeometry width="50" height="50" relative="1" as="geometry">
            <mxPoint x="140" y="500" as="sourcePoint" />
            <mxPoint x="190" y="450" as="targetPoint" />
          </mxGeometry>
        </mxCell>
        <mxCell id="EYfdABTAuKxK3zkM5wz1-6" value="" style="endArrow=classic;html=1;rounded=0;exitX=1;exitY=0.5;exitDx=0;exitDy=0;" edge="1" parent="1" source="EYfdABTAuKxK3zkM5wz1-2" target="EYfdABTAuKxK3zkM5wz1-3">
          <mxGeometry width="50" height="50" relative="1" as="geometry">
            <mxPoint x="140" y="320" as="sourcePoint" />
            <mxPoint x="230" y="320" as="targetPoint" />
          </mxGeometry>
        </mxCell>
        <mxCell id="EYfdABTAuKxK3zkM5wz1-7" value="" style="endArrow=classic;html=1;rounded=0;" edge="1" parent="1" source="EYfdABTAuKxK3zkM5wz1-3" target="EYfdABTAuKxK3zkM5wz1-4">
          <mxGeometry width="50" height="50" relative="1" as="geometry">
            <mxPoint x="150" y="330" as="sourcePoint" />
            <mxPoint x="240" y="330" as="targetPoint" />
          </mxGeometry>
        </mxCell>
        <mxCell id="EYfdABTAuKxK3zkM5wz1-9" value="Function call" style="text;html=1;align=center;verticalAlign=middle;resizable=0;points=[];autosize=1;strokeColor=none;fillColor=none;" vertex="1" parent="1">
          <mxGeometry x="130" y="290" width="90" height="30" as="geometry" />
        </mxCell>
        <mxCell id="EYfdABTAuKxK3zkM5wz1-11" value="HTTP request" style="text;html=1;align=center;verticalAlign=middle;resizable=0;points=[];autosize=1;strokeColor=none;fillColor=none;" vertex="1" parent="1">
          <mxGeometry x="360" y="290" width="100" height="30" as="geometry" />
        </mxCell>
        <mxCell id="EYfdABTAuKxK3zkM5wz1-12" value="Function call" style="text;html=1;align=center;verticalAlign=middle;resizable=0;points=[];autosize=1;strokeColor=none;fillColor=none;" vertex="1" parent="1">
          <mxGeometry x="590" y="290" width="90" height="30" as="geometry" />
        </mxCell>
        <mxCell id="EYfdABTAuKxK3zkM5wz1-13" value="File System" style="rounded=0;whiteSpace=wrap;html=1;" vertex="1" parent="1">
          <mxGeometry x="890" y="280" width="120" height="80" as="geometry" />
        </mxCell>
        <mxCell id="EYfdABTAuKxK3zkM5wz1-14" value="" style="endArrow=classic;html=1;rounded=0;" edge="1" parent="1" source="EYfdABTAuKxK3zkM5wz1-4" target="EYfdABTAuKxK3zkM5wz1-13">
          <mxGeometry width="50" height="50" relative="1" as="geometry">
            <mxPoint x="600" y="330" as="sourcePoint" />
            <mxPoint x="700" y="330" as="targetPoint" />
          </mxGeometry>
        </mxCell>
        <mxCell id="EYfdABTAuKxK3zkM5wz1-15" value="Read file" style="text;html=1;align=center;verticalAlign=middle;resizable=0;points=[];autosize=1;strokeColor=none;fillColor=none;" vertex="1" parent="1">
          <mxGeometry x="810" y="290" width="70" height="30" as="geometry" />
        </mxCell>
        <mxCell id="EYfdABTAuKxK3zkM5wz1-17" value="Backend" style="shape=umlFrame;whiteSpace=wrap;html=1;pointerEvents=0;dashed=1;" vertex="1" parent="1">
          <mxGeometry x="450" y="230" width="370" height="150" as="geometry" />
        </mxCell>
        <mxCell id="EYfdABTAuKxK3zkM5wz1-18" value="DB layer" style="shape=umlFrame;whiteSpace=wrap;html=1;pointerEvents=0;dashed=1;" vertex="1" parent="1">
          <mxGeometry x="870" y="230" width="180" height="150" as="geometry" />
        </mxCell>
        <mxCell id="EYfdABTAuKxK3zkM5wz1-19" value="Frontend" style="shape=umlFrame;whiteSpace=wrap;html=1;pointerEvents=0;dashed=1;" vertex="1" parent="1">
          <mxGeometry y="230" width="350" height="150" as="geometry" />
        </mxCell>
      </root>
    </mxGraphModel>
  </diagram>
</mxfile>
